<?xml version="1.0" encoding="UTF-8"?>
<svg xmlns="http://www.w3.org/2000/svg" xmlns:xlink="http://www.w3.org/1999/xlink" width="421pt" height="110pt" viewBox="0 0 421 110" version="1.1">
<g id="surface33746">
<path style=" stroke:none;fill-rule:evenodd;fill:rgb(100%,0%,0%);fill-opacity:1;" d="M 93.570312 18.683594 L 97.890625 18.683594 L 97.890625 14.363281 L 93.570312 14.363281 Z M 93.570312 18.683594 "/>
<path style=" stroke:none;fill-rule:evenodd;fill:rgb(100%,0%,0%);fill-opacity:1;" d="M 105.09375 16.523438 C 105.09375 13.644531 100.773438 13.644531 100.773438 16.523438 C 100.773438 19.40625 105.09375 19.40625 105.09375 16.523438 "/>
<path style=" stroke:none;fill-rule:evenodd;fill:rgb(100%,0%,0%);fill-opacity:1;" d="M 112.292969 16.523438 C 112.292969 13.644531 107.972656 13.644531 107.972656 16.523438 C 107.972656 19.40625 112.292969 19.40625 112.292969 16.523438 "/>
<path style=" stroke:none;fill-rule:evenodd;fill:rgb(100%,0%,0%);fill-opacity:1;" d="M 119.492188 16.523438 C 119.492188 13.644531 115.171875 13.644531 115.171875 16.523438 C 115.171875 19.40625 119.492188 19.40625 119.492188 16.523438 "/>
<path style=" stroke:none;fill-rule:evenodd;fill:rgb(100%,0%,0%);fill-opacity:1;" d="M 194.371094 18.683594 L 198.691406 18.683594 L 198.691406 14.363281 L 194.371094 14.363281 Z M 194.371094 18.683594 "/>
<path style=" stroke:none;fill-rule:evenodd;fill:rgb(100%,0%,0%);fill-opacity:1;" d="M 191.492188 16.523438 C 191.492188 13.644531 187.171875 13.644531 187.171875 16.523438 C 187.171875 19.40625 191.492188 19.40625 191.492188 16.523438 "/>
<path style=" stroke:none;fill-rule:evenodd;fill:rgb(100%,0%,0%);fill-opacity:1;" d="M 184.292969 16.523438 C 184.292969 13.644531 179.972656 13.644531 179.972656 16.523438 C 179.972656 19.40625 184.292969 19.40625 184.292969 16.523438 "/>
<path style=" stroke:none;fill-rule:evenodd;fill:rgb(100%,0%,0%);fill-opacity:1;" d="M 177.09375 16.523438 C 177.09375 13.644531 172.773438 13.644531 172.773438 16.523438 C 172.773438 19.40625 177.09375 19.40625 177.09375 16.523438 "/>
<path style=" stroke:none;fill-rule:evenodd;fill:rgb(100%,0%,0%);fill-opacity:1;" d="M 45.683594 25.199219 C 45.683594 18.585938 35.761719 18.585938 35.761719 25.199219 L 35.761719 29.449219 C 35.761719 36.066406 45.683594 36.066406 45.683594 29.449219 L 45.683594 25.199219 "/>
<path style=" stroke:none;fill-rule:evenodd;fill:rgb(100%,0%,0%);fill-opacity:1;" d="M 30.960938 7.941406 C 26.238281 7.941406 26.238281 15.027344 30.960938 15.027344 L 34.648438 15.027344 C 39.371094 15.027344 39.371094 7.941406 34.648438 7.941406 L 30.960938 7.941406 "/>
<path style=" stroke:none;fill-rule:evenodd;fill:rgb(100%,0%,0%);fill-opacity:1;" d="M 22.683594 17.660156 C 17.957031 17.660156 17.957031 24.746094 22.683594 24.746094 L 26.367188 24.746094 C 31.089844 24.746094 31.089844 17.660156 26.367188 17.660156 L 22.683594 17.660156 "/>
<path style=" stroke:none;fill-rule:evenodd;fill:rgb(100%,0%,0%);fill-opacity:1;" d="M 22.683594 17.660156 C 17.957031 17.660156 17.957031 24.746094 22.683594 24.746094 L 26.367188 24.746094 C 31.089844 24.746094 31.089844 17.660156 26.367188 17.660156 L 22.683594 17.660156 "/>
<path style=" stroke:none;fill-rule:evenodd;fill:rgb(100%,0%,0%);fill-opacity:1;" d="M 77.90625 11.484375 C 77.90625 7.570312 74.734375 4.398438 70.820312 4.398438 C 66.90625 4.398438 63.734375 7.570312 63.734375 11.484375 C 63.734375 15.398438 66.90625 18.570312 70.820312 18.570312 C 74.734375 18.570312 77.90625 15.398438 77.90625 11.484375 "/>
<path style=" stroke:none;fill-rule:evenodd;fill:rgb(100%,0%,0%);fill-opacity:1;" d="M 229.105469 11.484375 C 229.105469 7.570312 225.933594 4.398438 222.019531 4.398438 C 218.105469 4.398438 214.933594 7.570312 214.933594 11.484375 C 214.933594 15.398438 218.105469 18.570312 222.019531 18.570312 C 225.933594 18.570312 229.105469 15.398438 229.105469 11.484375 "/>
<path style=" stroke:none;fill-rule:evenodd;fill:rgb(100%,0%,0%);fill-opacity:1;" d="M 401.90625 11.484375 C 401.90625 7.570312 398.734375 4.398438 394.820312 4.398438 C 390.90625 4.398438 387.734375 7.570312 387.734375 11.484375 C 387.734375 15.398438 390.90625 18.570312 394.820312 18.570312 C 398.734375 18.570312 401.90625 15.398438 401.90625 11.484375 "/>
<path style=" stroke:none;fill-rule:evenodd;fill:rgb(100%,0%,0%);fill-opacity:1;" d="M 229.105469 97.882812 C 229.105469 93.972656 225.933594 90.796875 222.019531 90.796875 C 218.105469 90.796875 214.933594 93.972656 214.933594 97.882812 C 214.933594 101.796875 218.105469 104.972656 222.019531 104.972656 C 225.933594 104.972656 229.105469 101.796875 229.105469 97.882812 "/>
<path style=" stroke:none;fill-rule:evenodd;fill:rgb(100%,0%,0%);fill-opacity:1;" d="M 77.90625 97.882812 C 77.90625 93.972656 74.734375 90.796875 70.820312 90.796875 C 66.90625 90.796875 63.734375 93.972656 63.734375 97.882812 C 63.734375 101.796875 66.90625 104.972656 70.820312 104.972656 C 74.734375 104.972656 77.90625 101.796875 77.90625 97.882812 "/>
<path style=" stroke:none;fill-rule:evenodd;fill:rgb(100%,0%,0%);fill-opacity:1;" d="M 250.707031 97.882812 C 250.707031 93.972656 247.535156 90.796875 243.621094 90.796875 C 239.707031 90.796875 236.535156 93.972656 236.535156 97.882812 C 236.535156 101.796875 239.707031 104.972656 243.621094 104.972656 C 247.535156 104.972656 250.707031 101.796875 250.707031 97.882812 "/>
<path style=" stroke:none;fill-rule:evenodd;fill:rgb(100%,0%,0%);fill-opacity:1;" d="M 401.90625 97.882812 C 401.90625 93.972656 398.734375 90.796875 394.820312 90.796875 C 390.90625 90.796875 387.734375 93.972656 387.734375 97.882812 C 387.734375 101.796875 390.90625 104.972656 394.820312 104.972656 C 398.734375 104.972656 401.90625 101.796875 401.90625 97.882812 "/>
<path style=" stroke:none;fill-rule:evenodd;fill:rgb(100%,0%,0%);fill-opacity:1;" d="M 129.570312 18.683594 L 133.890625 18.683594 L 133.890625 14.363281 L 129.570312 14.363281 Z M 129.570312 18.683594 "/>
<path style=" stroke:none;fill-rule:evenodd;fill:rgb(100%,0%,0%);fill-opacity:1;" d="M 141.09375 16.523438 C 141.09375 13.644531 136.773438 13.644531 136.773438 16.523438 C 136.773438 19.40625 141.09375 19.40625 141.09375 16.523438 "/>
<path style=" stroke:none;fill-rule:evenodd;fill:rgb(100%,0%,0%);fill-opacity:1;" d="M 148.292969 16.523438 C 148.292969 13.644531 143.972656 13.644531 143.972656 16.523438 C 143.972656 19.40625 148.292969 19.40625 148.292969 16.523438 "/>
<path style=" stroke:none;fill-rule:evenodd;fill:rgb(100%,0%,0%);fill-opacity:1;" d="M 155.492188 16.523438 C 155.492188 13.644531 151.171875 13.644531 151.171875 16.523438 C 151.171875 19.40625 155.492188 19.40625 155.492188 16.523438 "/>
<path style=" stroke:none;fill-rule:evenodd;fill:rgb(100%,0%,0%);fill-opacity:1;" d="M 162.691406 16.523438 C 162.691406 13.644531 158.371094 13.644531 158.371094 16.523438 C 158.371094 19.40625 162.691406 19.40625 162.691406 16.523438 "/>
<path style=" stroke:none;fill-rule:evenodd;fill:rgb(100%,0%,0%);fill-opacity:1;" d="M 219.859375 31.644531 L 224.179688 31.644531 L 224.179688 27.324219 L 219.859375 27.324219 Z M 219.859375 31.644531 "/>
<path style=" stroke:none;fill-rule:evenodd;fill:rgb(100%,0%,0%);fill-opacity:1;" d="M 224.179688 36.683594 C 224.179688 33.804688 219.859375 33.804688 219.859375 36.683594 C 219.859375 39.566406 224.179688 39.566406 224.179688 36.683594 "/>
<path style=" stroke:none;fill-rule:evenodd;fill:rgb(100%,0%,0%);fill-opacity:1;" d="M 224.179688 43.882812 C 224.179688 41.003906 219.859375 41.003906 219.859375 43.882812 C 219.859375 46.765625 224.179688 46.765625 224.179688 43.882812 "/>
<path style=" stroke:none;fill-rule:evenodd;fill:rgb(100%,0%,0%);fill-opacity:1;" d="M 224.179688 51.085938 C 224.179688 48.203125 219.859375 48.203125 219.859375 51.085938 C 219.859375 53.964844 224.179688 53.964844 224.179688 51.085938 "/>
<path style=" stroke:none;fill-rule:evenodd;fill:rgb(100%,0%,0%);fill-opacity:1;" d="M 224.179688 58.285156 C 224.179688 55.40625 219.859375 55.40625 219.859375 58.285156 C 219.859375 61.164062 224.179688 61.164062 224.179688 58.285156 "/>
<path style=" stroke:none;fill-rule:evenodd;fill:rgb(100%,0%,0%);fill-opacity:1;" d="M 392.660156 31.644531 L 396.980469 31.644531 L 396.980469 27.324219 L 392.660156 27.324219 Z M 392.660156 31.644531 "/>
<path style=" stroke:none;fill-rule:evenodd;fill:rgb(100%,0%,0%);fill-opacity:1;" d="M 396.980469 36.683594 C 396.980469 33.804688 392.660156 33.804688 392.660156 36.683594 C 392.660156 39.566406 396.980469 39.566406 396.980469 36.683594 "/>
<path style=" stroke:none;fill-rule:evenodd;fill:rgb(100%,0%,0%);fill-opacity:1;" d="M 396.980469 43.882812 C 396.980469 41.003906 392.660156 41.003906 392.660156 43.882812 C 392.660156 46.765625 396.980469 46.765625 396.980469 43.882812 "/>
<path style=" stroke:none;fill-rule:evenodd;fill:rgb(100%,0%,0%);fill-opacity:1;" d="M 396.980469 51.085938 C 396.980469 48.203125 392.660156 48.203125 392.660156 51.085938 C 392.660156 53.964844 396.980469 53.964844 396.980469 51.085938 "/>
<path style=" stroke:none;fill-rule:evenodd;fill:rgb(100%,0%,0%);fill-opacity:1;" d="M 396.980469 58.285156 C 396.980469 55.40625 392.660156 55.40625 392.660156 58.285156 C 392.660156 61.164062 396.980469 61.164062 396.980469 58.285156 "/>
<path style=" stroke:none;fill-rule:evenodd;fill:rgb(100%,0%,0%);fill-opacity:1;" d="M 172.628906 47.484375 C 172.628906 43.164062 166.148438 43.164062 166.148438 47.484375 C 166.148438 51.804688 172.628906 51.804688 172.628906 47.484375 "/>
<path style=" stroke:none;fill-rule:evenodd;fill:rgb(100%,0%,0%);fill-opacity:1;" d="M 95.371094 31.644531 C 95.371094 27.324219 88.890625 27.324219 88.890625 31.644531 C 88.890625 35.964844 95.371094 35.964844 95.371094 31.644531 "/>
<path style=" stroke:none;fill-rule:evenodd;fill:rgb(100%,0%,0%);fill-opacity:1;" d="M 170.972656 16.523438 C 170.972656 12.203125 164.492188 12.203125 164.492188 16.523438 C 164.492188 20.84375 170.972656 20.84375 170.972656 16.523438 "/>
<path style="fill:none;stroke-width:0.04;stroke-linecap:round;stroke-linejoin:miter;stroke:rgb(100%,0%,0%);stroke-opacity:1;stroke-miterlimit:10;" d="M 4.569997 -4.059982 L 4.569997 -4.269997 " transform="matrix(72,0,0,-72,-211.707751,-275.795275)"/>
<path style="fill:none;stroke-width:0.04;stroke-linecap:round;stroke-linejoin:miter;stroke:rgb(100%,0%,0%);stroke-opacity:1;stroke-miterlimit:10;" d="M 5.370019 -4.239995 L 5.328026 -4.239995 " transform="matrix(72,0,0,-72,-211.707751,-275.795275)"/>
<path style="fill:none;stroke-width:0.04;stroke-linecap:round;stroke-linejoin:miter;stroke:rgb(100%,0%,0%);stroke-opacity:1;stroke-miterlimit:10;" d="M 5.328026 -4.239995 L 5.292979 -4.274989 " transform="matrix(72,0,0,-72,-211.707751,-275.795275)"/>
<path style="fill:none;stroke-width:0.04;stroke-linecap:round;stroke-linejoin:miter;stroke:rgb(100%,0%,0%);stroke-opacity:1;stroke-miterlimit:10;" d="M 5.370019 -4.144997 L 5.370019 -4.219976 " transform="matrix(72,0,0,-72,-211.707751,-275.795275)"/>
<path style="fill:none;stroke-width:0.04;stroke-linecap:round;stroke-linejoin:miter;stroke:rgb(100%,0%,0%);stroke-opacity:1;stroke-miterlimit:10;" d="M 5.370019 -4.144997 L 5.370019 -4.059982 " transform="matrix(72,0,0,-72,-211.707751,-275.795275)"/>
<path style="fill:none;stroke-width:0.04;stroke-linecap:round;stroke-linejoin:miter;stroke:rgb(100%,0%,0%);stroke-opacity:1;stroke-miterlimit:10;" d="M 5.370019 -4.219976 L 5.370019 -4.239995 " transform="matrix(72,0,0,-72,-211.707751,-275.795275)"/>
<path style="fill:none;stroke-width:0.04;stroke-linecap:round;stroke-linejoin:miter;stroke:rgb(100%,0%,0%);stroke-opacity:1;stroke-miterlimit:10;" d="M 5.370019 -4.239995 L 5.505001 -4.239995 " transform="matrix(72,0,0,-72,-211.707751,-275.795275)"/>
<path style="fill:none;stroke-width:0.04;stroke-linecap:round;stroke-linejoin:miter;stroke:rgb(100%,0%,0%);stroke-opacity:1;stroke-miterlimit:10;" d="M 5.292979 -4.489995 L 5.292979 -4.274989 " transform="matrix(72,0,0,-72,-211.707751,-275.795275)"/>
<path style="fill:none;stroke-width:0.04;stroke-linecap:round;stroke-linejoin:miter;stroke:rgb(100%,0%,0%);stroke-opacity:1;stroke-miterlimit:10;" d="M 5.292979 -4.274989 L 5.292979 -4.269997 " transform="matrix(72,0,0,-72,-211.707751,-275.795275)"/>
<path style="fill:none;stroke-width:0.04;stroke-linecap:round;stroke-linejoin:miter;stroke:rgb(100%,0%,0%);stroke-opacity:1;stroke-miterlimit:10;" d="M 4.57998 -4.269997 L 4.569997 -4.269997 " transform="matrix(72,0,0,-72,-211.707751,-275.795275)"/>
<path style="fill:none;stroke-width:0.04;stroke-linecap:round;stroke-linejoin:miter;stroke:rgb(100%,0%,0%);stroke-opacity:1;stroke-miterlimit:10;" d="M 4.569997 -4.269997 L 5.060014 -4.269997 " transform="matrix(72,0,0,-72,-211.707751,-275.795275)"/>
<path style="fill:none;stroke-width:0.04;stroke-linecap:round;stroke-linejoin:miter;stroke:rgb(100%,0%,0%);stroke-opacity:1;stroke-miterlimit:10;" d="M 5.160003 -4.269997 L 5.292979 -4.269997 " transform="matrix(72,0,0,-72,-211.707751,-275.795275)"/>
<path style="fill:none;stroke-width:0.04;stroke-linecap:round;stroke-linejoin:miter;stroke:rgb(100%,0%,0%);stroke-opacity:1;stroke-miterlimit:10;" d="M 5.060014 -4.269997 L 5.160003 -4.269997 " transform="matrix(72,0,0,-72,-211.707751,-275.795275)"/>
<path style="fill:none;stroke-width:0.04;stroke-linecap:round;stroke-linejoin:miter;stroke:rgb(100%,0%,0%);stroke-opacity:1;stroke-miterlimit:10;" d="M 5.57998 -4.239995 L 5.505001 -4.239995 " transform="matrix(72,0,0,-72,-211.707751,-275.795275)"/>
<path style="fill:none;stroke-width:0.04;stroke-linecap:round;stroke-linejoin:miter;stroke:rgb(100%,0%,0%);stroke-opacity:1;stroke-miterlimit:10;" d="M 5.57998 -4.239995 L 6.02399 -4.239995 " transform="matrix(72,0,0,-72,-211.707751,-275.795275)"/>
<path style="fill:none;stroke-width:0.04;stroke-linecap:round;stroke-linejoin:miter;stroke:rgb(100%,0%,0%);stroke-opacity:1;stroke-miterlimit:10;" d="M 4.220008 -4.269997 L 4.57998 -4.269997 " transform="matrix(72,0,0,-72,-211.707751,-275.795275)"/>
<path style="fill:none;stroke-width:0.03;stroke-linecap:round;stroke-linejoin:miter;stroke:rgb(100%,0%,0%);stroke-opacity:1;stroke-miterlimit:10;" d="M 4.370019 -3.980013 L 4.370019 -4.059982 " transform="matrix(72,0,0,-72,-211.707751,-275.795275)"/>
<path style="fill:none;stroke-width:0.04;stroke-linecap:round;stroke-linejoin:miter;stroke:rgb(100%,0%,0%);stroke-opacity:1;stroke-miterlimit:10;" d="M 3.924001 -3.989995 L 3.924001 -5.189973 " transform="matrix(72,0,0,-72,-211.707751,-275.795275)"/>
<path style="fill:none;stroke-width:0.03;stroke-linecap:round;stroke-linejoin:miter;stroke:rgb(100%,0%,0%);stroke-opacity:1;stroke-miterlimit:10;" d="M 3.924001 -3.989995 L 3.933984 -3.980013 " transform="matrix(72,0,0,-72,-211.707751,-275.795275)"/>
<path style="fill:none;stroke-width:0.03;stroke-linecap:round;stroke-linejoin:miter;stroke:rgb(100%,0%,0%);stroke-opacity:1;stroke-miterlimit:10;" d="M 3.933984 -3.980013 L 4.370019 -3.980013 " transform="matrix(72,0,0,-72,-211.707751,-275.795275)"/>
<path style="fill:none;stroke-width:0.03;stroke-linecap:round;stroke-linejoin:miter;stroke:rgb(100%,0%,0%);stroke-opacity:1;stroke-miterlimit:10;" d="M 4.370019 -3.980013 L 4.380001 -3.980013 " transform="matrix(72,0,0,-72,-211.707751,-275.795275)"/>
<path style="fill:none;stroke-width:0.03;stroke-linecap:round;stroke-linejoin:miter;stroke:rgb(100%,0%,0%);stroke-opacity:1;stroke-miterlimit:10;" d="M 5.269975 -4.059982 L 5.269975 -3.980013 " transform="matrix(72,0,0,-72,-211.707751,-275.795275)"/>
<path style="fill:none;stroke-width:0.03;stroke-linecap:round;stroke-linejoin:miter;stroke:rgb(100%,0%,0%);stroke-opacity:1;stroke-miterlimit:10;" d="M 4.970008 -3.980013 L 4.970008 -4.059982 " transform="matrix(72,0,0,-72,-211.707751,-275.795275)"/>
<path style="fill:none;stroke-width:0.03;stroke-linecap:round;stroke-linejoin:miter;stroke:rgb(100%,0%,0%);stroke-opacity:1;stroke-miterlimit:10;" d="M 5.569997 -3.980013 L 5.569997 -4.059982 " transform="matrix(72,0,0,-72,-211.707751,-275.795275)"/>
<path style="fill:none;stroke-width:0.03;stroke-linecap:round;stroke-linejoin:miter;stroke:rgb(100%,0%,0%);stroke-opacity:1;stroke-miterlimit:10;" d="M 5.930023 -3.980013 L 5.569997 -3.980013 " transform="matrix(72,0,0,-72,-211.707751,-275.795275)"/>
<path style="fill:none;stroke-width:0.03;stroke-linecap:round;stroke-linejoin:miter;stroke:rgb(100%,0%,0%);stroke-opacity:1;stroke-miterlimit:10;" d="M 5.569997 -3.980013 L 5.269975 -3.980013 " transform="matrix(72,0,0,-72,-211.707751,-275.795275)"/>
<path style="fill:none;stroke-width:0.03;stroke-linecap:round;stroke-linejoin:miter;stroke:rgb(100%,0%,0%);stroke-opacity:1;stroke-miterlimit:10;" d="M 5.269975 -3.980013 L 4.970008 -3.980013 " transform="matrix(72,0,0,-72,-211.707751,-275.795275)"/>
<path style="fill:none;stroke-width:0.03;stroke-linecap:round;stroke-linejoin:miter;stroke:rgb(100%,0%,0%);stroke-opacity:1;stroke-miterlimit:10;" d="M 4.970008 -3.980013 L 4.380001 -3.980013 " transform="matrix(72,0,0,-72,-211.707751,-275.795275)"/>
</g>
</svg>
